# Blender 5.2.0 LTS
# www.blender.org
mtllib mateEscalaV2.mtl
o Cilindro
v 0.098639 -0.025287 0.014387
v 0.098235 0.070563 0.006584
v 0.085744 -0.025356 0.011559
v 0.088405 0.070511 0.004429
v 0.074912 -0.025401 0.004012
v 0.080148 0.070477 -0.001324
v 0.067793 -0.025415 -0.007106
v 0.074721 0.070466 -0.009799
v 0.065471 -0.025396 -0.020102
v 0.072950 0.070481 -0.019706
v 0.068298 -0.025347 -0.032997
v 0.075106 0.070518 -0.029536
v 0.075845 -0.025276 -0.043829
v 0.080859 0.070572 -0.037793
v 0.086963 -0.025193 -0.050947
v 0.089333 0.070635 -0.043219
v 0.099958 -0.025111 -0.053270
v 0.099240 0.070698 -0.044990
v 0.112854 -0.025042 -0.050442
v 0.109070 0.070750 -0.042834
v 0.123685 -0.024998 -0.042895
v 0.117327 0.070784 -0.037081
v 0.130805 -0.024984 -0.031777
v 0.122754 0.070795 -0.028606
v 0.133127 -0.025003 -0.018782
v 0.124524 0.070780 -0.018700
v 0.130300 -0.025051 -0.005886
v 0.122369 0.070743 -0.008870
v 0.122753 -0.025122 0.004945
v 0.116616 0.070689 -0.000613
v 0.111635 -0.025205 0.012064
v 0.108141 0.070626 0.004814
v 0.098316 0.000342 0.023319
v 0.098080 0.040660 0.023420
v 0.081804 0.040573 0.019851
v 0.082040 0.000256 0.019750
v 0.068132 0.040517 0.010325
v 0.068369 0.000199 0.010225
v 0.059147 0.040499 -0.003707
v 0.059383 0.000181 -0.003808
v 0.056215 0.040523 -0.020110
v 0.056452 0.000205 -0.020211
v 0.059784 0.040584 -0.036386
v 0.060020 0.000267 -0.036487
v 0.069310 0.040674 -0.050057
v 0.069546 0.000357 -0.050158
v 0.083342 0.040779 -0.059043
v 0.083578 0.000461 -0.059143
v 0.099745 0.040882 -0.061974
v 0.099981 0.000565 -0.062075
v 0.116021 0.040969 -0.058405
v 0.116257 0.000651 -0.058506
v 0.129692 0.041025 -0.048879
v 0.129928 0.000708 -0.048980
v 0.138678 0.041043 -0.034847
v 0.138914 0.000725 -0.034947
v 0.141609 0.041019 -0.018444
v 0.141845 0.000702 -0.018545
v 0.138041 0.040958 -0.002168
v 0.138277 0.000640 -0.002269
v 0.128515 0.040868 0.011503
v 0.128751 0.000550 0.011403
v 0.114483 0.040763 0.020488
v 0.114719 0.000445 0.020388
v 0.112648 0.070791 -0.051018
v 0.114156 0.059028 -0.054338
v 0.123765 0.070837 -0.043273
v 0.126422 0.059079 -0.045791
v 0.131071 0.070852 -0.031863
v 0.134484 0.059095 -0.033201
v 0.133455 0.070832 -0.018525
v 0.137114 0.059073 -0.018485
v 0.130553 0.070782 -0.005291
v 0.133913 0.059018 -0.003882
v 0.122808 0.070709 0.005825
v 0.125366 0.058938 0.008384
v 0.098060 0.058751 0.019076
v 0.098060 0.070540 0.015515
v 0.111398 0.070624 0.013131
v 0.112776 0.058844 0.016446
v 0.098078 0.070542 0.014626
v 0.098079 0.058753 0.018095
v 0.083850 0.058678 0.014975
v 0.085182 0.070474 0.011798
v 0.071898 0.058628 0.006647
v 0.074351 0.070429 0.004251
v 0.064042 0.058613 -0.005620
v 0.067232 0.070415 -0.006867
v 0.061479 0.058634 -0.019960
v 0.064909 0.070434 -0.019863
v 0.064599 0.058687 -0.034189
v 0.067736 0.070483 -0.032758
v 0.072927 0.058766 -0.046141
v 0.075283 0.070554 -0.043590
v 0.085194 0.058858 -0.053996
v 0.086401 0.070637 -0.050709
v 0.099534 0.058948 -0.056559
v 0.099397 0.070719 -0.053031
v 0.113763 0.059024 -0.053439
v 0.112292 0.070787 -0.050203
v 0.125715 0.059073 -0.045111
v 0.123124 0.070832 -0.042656
v 0.133570 0.059088 -0.032844
v 0.130243 0.070846 -0.031538
v 0.136133 0.059068 -0.018504
v 0.132566 0.070827 -0.018543
v 0.133014 0.059014 -0.004275
v 0.129738 0.070778 -0.005647
v 0.124686 0.058935 0.007677
v 0.122191 0.070707 0.005184
v 0.112418 0.058844 0.015532
v 0.111074 0.070624 0.012303
v 0.099553 0.058951 -0.057540
v 0.099414 0.070721 -0.053920
v 0.084836 0.058858 -0.054910
v 0.086077 0.070637 -0.051537
v 0.072246 0.058764 -0.046848
v 0.074667 0.070552 -0.044231
v 0.063700 0.058683 -0.034582
v 0.066922 0.070479 -0.033114
v 0.060498 0.058628 -0.019979
v 0.064020 0.070429 -0.019880
v 0.063129 0.058607 -0.005263
v 0.066404 0.070409 -0.006543
v 0.071190 0.058623 0.007327
v 0.073710 0.070424 0.004867
v 0.083457 0.058673 0.015874
v 0.084826 0.070470 0.012613
v 0.084141 0.064571 0.014243
v 0.072450 0.064523 0.006097
v 0.064766 0.064508 -0.005903
v 0.062259 0.064528 -0.019930
v 0.065311 0.064581 -0.033848
v 0.073457 0.064658 -0.045539
v 0.085457 0.064747 -0.053223
v 0.099484 0.064836 -0.055730
v 0.113402 0.064910 -0.052678
v 0.125093 0.064958 -0.044532
v 0.132777 0.064973 -0.032532
v 0.135284 0.064953 -0.018505
v 0.132233 0.064900 -0.004586
v 0.124087 0.064823 0.007105
v 0.112087 0.064734 0.014789
v 0.098060 0.064645 0.017295
v 0.098639 -0.025287 0.014387
v 0.111635 -0.025205 0.012064
v 0.122753 -0.025122 0.004945
v 0.130300 -0.025051 -0.005886
v 0.133127 -0.025003 -0.018782
v 0.130805 -0.024984 -0.031777
v 0.123685 -0.024998 -0.042895
v 0.112854 -0.025042 -0.050442
v 0.099958 -0.025111 -0.053270
v 0.088430 0.066148 0.004418
v 0.098260 0.066200 0.006573
v 0.080173 0.066114 -0.001335
v 0.074746 0.066103 -0.009810
v 0.072976 0.066117 -0.019717
v 0.075131 0.066154 -0.029547
v 0.080884 0.066209 -0.037803
v 0.089359 0.066272 -0.043230
v 0.099266 0.066334 -0.045001
v 0.109096 0.066387 -0.042845
v 0.117352 0.066421 -0.037092
v 0.122779 0.066431 -0.028617
v 0.124550 0.066417 -0.018710
v 0.122395 0.066380 -0.008881
v 0.116642 0.066326 -0.000624
v 0.108167 0.066262 0.004803
v 0.098639 -0.025287 0.014387
v 0.099958 -0.025111 -0.053270
v 0.111635 -0.025205 0.012064
v 0.122753 -0.025122 0.004945
v 0.130300 -0.025051 -0.005886
v 0.133127 -0.025003 -0.018782
v 0.130805 -0.024984 -0.031777
v 0.123685 -0.024998 -0.042895
v 0.112854 -0.025042 -0.050442
v 0.098639 -0.025287 0.014387
v 0.099958 -0.025111 -0.053270
v 0.111635 -0.025205 0.012064
v 0.122753 -0.025122 0.004945
v 0.130300 -0.025051 -0.005886
v 0.133127 -0.025003 -0.018782
v 0.130805 -0.024984 -0.031777
v 0.123685 -0.024998 -0.042895
v 0.112854 -0.025042 -0.050442
v 0.098639 -0.025287 0.014387
v 0.099958 -0.025111 -0.053270
v 0.111635 -0.025205 0.012064
v 0.122753 -0.025122 0.004945
v 0.130300 -0.025051 -0.005886
v 0.133127 -0.025003 -0.018782
v 0.130805 -0.024984 -0.031777
v 0.123685 -0.024998 -0.042895
v 0.112854 -0.025042 -0.050442
v 0.098113 0.064478 0.014610
v 0.099432 0.064654 -0.053046
v 0.111109 0.064560 0.012288
v 0.122227 0.064643 0.005169
v 0.129774 0.064714 -0.005663
v 0.132601 0.064763 -0.018558
v 0.130278 0.064781 -0.031554
v 0.123159 0.064767 -0.042671
v 0.112328 0.064723 -0.050219
v 0.098337 0.026248 0.014515
v 0.085442 0.026179 0.011688
v 0.074610 0.026134 0.004140
v 0.067491 0.026120 -0.006977
v 0.065169 0.026139 -0.019973
v 0.067996 0.026188 -0.032868
v 0.075543 0.026259 -0.043700
v 0.086661 0.026342 -0.050819
v 0.099656 0.026424 -0.053141
v 0.089306 0.041115 0.003210
v 0.089098 0.041114 0.003165
v 0.081257 0.041082 -0.002299
v 0.076104 0.041072 -0.010346
v 0.074422 0.041085 -0.019754
v 0.076469 0.041121 -0.029088
v 0.081932 0.041172 -0.036929
v 0.089980 0.041232 -0.042082
v 0.090190 0.041234 -0.042120
v 0.098250 0.041140 0.014552
v 0.085355 0.041071 0.011725
v 0.074523 0.041026 0.004178
v 0.067404 0.041012 -0.006940
v 0.065081 0.041031 -0.019936
v 0.067909 0.041080 -0.032831
v 0.075456 0.041151 -0.043663
v 0.086573 0.041234 -0.050782
v 0.099569 0.041316 -0.053104
v 0.089306 0.041115 0.003210
v 0.089098 0.041114 0.003165
v 0.081257 0.041082 -0.002299
v 0.076104 0.041072 -0.010346
v 0.074422 0.041085 -0.019754
v 0.076469 0.041121 -0.029088
v 0.081932 0.041172 -0.036929
v 0.089980 0.041232 -0.042082
v 0.090190 0.041234 -0.042120
v 0.084253 0.041133 -0.015636
v 0.084217 0.041133 -0.015644
v 0.082860 0.041127 -0.016590
v 0.081967 0.041125 -0.017983
v 0.081676 0.041128 -0.019612
v 0.082031 0.041134 -0.021228
v 0.082977 0.041143 -0.022586
v 0.084370 0.041153 -0.023478
v 0.084406 0.041153 -0.023485
v 0.084253 0.041133 -0.015636
v 0.084217 0.041133 -0.015644
v 0.082860 0.041127 -0.016590
v 0.081967 0.041125 -0.017983
v 0.081676 0.041128 -0.019612
v 0.082031 0.041134 -0.021228
v 0.082977 0.041143 -0.022586
v 0.084370 0.041153 -0.023478
v 0.084406 0.041153 -0.023485
v 0.084253 0.041133 -0.015636
v 0.084217 0.041133 -0.015644
v 0.082860 0.041127 -0.016590
v 0.081967 0.041125 -0.017983
v 0.081676 0.041128 -0.019612
v 0.082031 0.041134 -0.021228
v 0.082977 0.041143 -0.022586
v 0.084370 0.041153 -0.023478
v 0.084406 0.041153 -0.023485
v 0.077673 0.041383 -0.016144
v 0.077637 0.041383 -0.016151
v 0.076279 0.041378 -0.017097
v 0.075387 0.041376 -0.018491
v 0.075096 0.041378 -0.020119
v 0.075450 0.041384 -0.021736
v 0.076396 0.041393 -0.023093
v 0.077790 0.041404 -0.023985
v 0.077826 0.041404 -0.023992
v 0.060405 0.158869 -0.016174
v 0.060369 0.158851 -0.016182
v 0.059015 0.158191 -0.017129
v 0.058125 0.157722 -0.018524
v 0.057835 0.157554 -0.020153
v 0.058189 0.157731 -0.021769
v 0.059132 0.158206 -0.023125
v 0.060521 0.158953 -0.024016
v 0.060557 0.158973 -0.024022
v 0.075297 0.056848 -0.018452
v 0.075206 0.072321 -0.018414
v 0.075045 0.099812 -0.018345
v 0.074920 0.121041 -0.018292
v 0.073941 0.138049 -0.018267
v 0.063917 0.151715 -0.018427
v 0.064907 0.151717 -0.017031
v 0.074421 0.138047 -0.016881
v 0.075813 0.121041 -0.016899
v 0.075937 0.099812 -0.016952
v 0.076098 0.072323 -0.017020
v 0.076189 0.056850 -0.017059
v 0.077699 0.056876 -0.023947
v 0.077608 0.072349 -0.023908
v 0.077447 0.099895 -0.023840
v 0.077323 0.121105 -0.023787
v 0.075814 0.138108 -0.023772
v 0.066499 0.151866 -0.023917
v 0.064919 0.151801 -0.023029
v 0.074421 0.138097 -0.022880
v 0.075929 0.121095 -0.022894
v 0.076054 0.099884 -0.022947
v 0.076215 0.072338 -0.023016
v 0.076306 0.056866 -0.023055
v 0.075005 0.056851 -0.020081
v 0.074915 0.072323 -0.020042
v 0.074753 0.099869 -0.019974
v 0.074629 0.121080 -0.019921
v 0.073237 0.138083 -0.019904
v 0.063598 0.151717 -0.020056
v 0.077546 0.056856 -0.016113
v 0.077456 0.072328 -0.016074
v 0.077294 0.099874 -0.016006
v 0.077170 0.121085 -0.015953
v 0.075662 0.138087 -0.015938
v 0.066407 0.151726 -0.016083
v 0.066452 0.151730 -0.016075
v 0.075698 0.138087 -0.015930
v 0.077206 0.121085 -0.015945
v 0.077330 0.099874 -0.015998
v 0.077492 0.072328 -0.016066
v 0.077582 0.056856 -0.016105
v 0.077735 0.056876 -0.023953
v 0.077645 0.072349 -0.023915
v 0.077483 0.099895 -0.023846
v 0.077359 0.121105 -0.023793
v 0.075851 0.138108 -0.023778
v 0.066541 0.151868 -0.023924
v 0.075360 0.056857 -0.021697
v 0.075269 0.072329 -0.021658
v 0.075108 0.099875 -0.021590
v 0.074983 0.121086 -0.021537
v 0.073475 0.138088 -0.021522
v 0.063907 0.151723 -0.021673
v 0.071186 0.142608 -0.018309
v 0.067552 0.147161 -0.018368
v 0.068509 0.147163 -0.016973
v 0.072111 0.142609 -0.016915
v 0.073286 0.142697 -0.023809
v 0.070073 0.147282 -0.023860
v 0.068556 0.147236 -0.022970
v 0.072193 0.142671 -0.022911
v 0.070886 0.142633 -0.019938
v 0.067242 0.147175 -0.019997
v 0.073516 0.142639 -0.015968
v 0.069962 0.147183 -0.016025
v 0.070003 0.147185 -0.016017
v 0.073555 0.142640 -0.015960
v 0.073302 0.142698 -0.023816
v 0.070114 0.147284 -0.023866
v 0.071225 0.142639 -0.021554
v 0.067566 0.147181 -0.021613
v 0.074887 0.126712 -0.018278
v 0.074854 0.132383 -0.018264
v 0.075746 0.132383 -0.016870
v 0.075779 0.126712 -0.016885
v 0.077289 0.126775 -0.023773
v 0.076878 0.132443 -0.023766
v 0.075485 0.132433 -0.022874
v 0.075896 0.126765 -0.022880
v 0.074596 0.126750 -0.019907
v 0.074563 0.132420 -0.019892
v 0.077137 0.126755 -0.015939
v 0.076725 0.132423 -0.015932
v 0.076762 0.132423 -0.015924
v 0.077173 0.126755 -0.015931
v 0.077326 0.126776 -0.023779
v 0.076915 0.132444 -0.023772
v 0.074950 0.126756 -0.021523
v 0.074539 0.132424 -0.021516
v 0.098080 0.040660 0.023420
v 0.081804 0.040573 0.019851
v 0.068132 0.040517 0.010325
v 0.059147 0.040499 -0.003707
v 0.056215 0.040523 -0.020110
v 0.059784 0.040584 -0.036386
v 0.069310 0.040674 -0.050057
v 0.083342 0.040779 -0.059043
v 0.099745 0.040882 -0.061974
v 0.116021 0.040969 -0.058405
v 0.129692 0.041025 -0.048879
v 0.138678 0.041043 -0.034847
v 0.141609 0.041019 -0.018444
v 0.138041 0.040958 -0.002168
v 0.128515 0.040868 0.011503
v 0.114483 0.040763 0.020488
v 0.081804 0.040573 0.019851
v 0.082040 0.000256 0.019750
v 0.068132 0.040517 0.010325
v 0.068369 0.000199 0.010225
v 0.059147 0.040499 -0.003707
v 0.059383 0.000181 -0.003808
v 0.056215 0.040523 -0.020110
v 0.056452 0.000205 -0.020211
v 0.059784 0.040584 -0.036386
v 0.060020 0.000267 -0.036487
v 0.069310 0.040674 -0.050057
v 0.069546 0.000357 -0.050158
v 0.083342 0.040779 -0.059043
v 0.083578 0.000461 -0.059143
v 0.099745 0.040882 -0.061974
v 0.099981 0.000565 -0.062075
v 0.116021 0.040969 -0.058405
v 0.116257 0.000651 -0.058506
v 0.129692 0.041025 -0.048879
v 0.129928 0.000708 -0.048980
v 0.138678 0.041043 -0.034847
v 0.138914 0.000725 -0.034947
v 0.141609 0.041019 -0.018444
v 0.141845 0.000702 -0.018545
v 0.138041 0.040958 -0.002168
v 0.138277 0.000640 -0.002269
v 0.128515 0.040868 0.011503
v 0.128751 0.000550 0.011403
v 0.114483 0.040763 0.020488
v 0.114719 0.000445 0.020388
v 0.098316 0.000342 0.023319
v 0.098080 0.040660 0.023420
vn -0.5494 0.2813 0.7868
vn -0.9448 0.2805 0.1693
vn -0.7878 0.2832 -0.5470
vn -0.5183 0.2855 -0.8061
vn -0.2069 0.2829 0.9366
vn 0.5460 0.2916 -0.7854
vn 0.9414 0.2924 -0.1678
vn 0.9342 0.2914 0.2059
vn -0.9375 0.2815 -0.2045
vn -0.0059 1.0000 0.0025
vn 0.0059 -1.0000 -0.0025
vn -0.8421 -0.0063 0.5392
vn 0.1685 -0.3225 0.9314
vn 0.5126 -0.3202 0.7967
vn 0.7789 -0.3180 0.5406
vn 0.9269 -0.3163 0.2020
vn 0.9341 -0.3153 -0.1674
vn 0.7994 -0.3152 -0.5115
vn 0.5433 -0.3161 -0.7778
vn 0.2047 -0.3177 -0.9258
vn -0.1647 -0.3198 -0.9331
vn -0.5088 -0.3222 -0.7983
vn -0.7751 -0.3244 -0.5422
vn -0.9231 -0.3261 -0.2036
vn -0.9303 -0.3270 0.1658
vn -0.7956 -0.3271 0.5099
vn -0.5395 -0.3263 0.7762
vn -0.2009 -0.3247 0.9242
vn 0.1669 0.2851 0.9439
vn -0.8085 0.2805 0.5174
vn -0.1702 0.2878 -0.9424
vn 0.2035 0.2900 -0.9351
vn 0.8051 0.2925 -0.5159
vn 0.7844 0.2897 0.5484
vn 0.5150 0.2875 0.8076
vn -0.2073 0.2762 0.9385
vn 0.1673 0.2784 0.9458
vn -0.5505 0.2745 0.7884
vn -0.8101 0.2737 0.5184
vn -0.9467 0.2738 0.1696
vn -0.9394 0.2747 -0.2049
vn -0.7894 0.2765 -0.5482
vn -0.5194 0.2787 -0.8078
vn -0.1705 0.2811 -0.9444
vn 0.2040 0.2833 -0.9371
vn 0.5472 0.2849 -0.7870
vn 0.8069 0.2857 -0.5170
vn 0.9434 0.2857 -0.1682
vn 0.9361 0.2847 0.2063
vn 0.7861 0.2830 0.5496
vn 0.5161 0.2807 0.8092
vn 0.5392 0.0011 0.8421
vn 0.9844 0.0062 -0.1759
vn -0.9844 -0.0062 0.1759
vn 0.9768 0.0052 0.2142
vn -0.9768 -0.0052 -0.2142
vn 0.8205 0.0034 0.5717
vn -0.8205 -0.0034 -0.5717
vn -0.5392 -0.0011 -0.8421
vn 0.1759 -0.0014 0.9844
vn 0.2142 0.0037 -0.9768
vn -0.1759 0.0014 -0.9844
vn -0.2142 -0.0037 0.9768
vn 0.5717 0.0054 -0.8205
vn -0.5717 -0.0054 0.8205
vn 0.8421 0.0063 -0.5392
vn 0.9998 0.0058 0.0195
vn -0.9998 -0.0058 -0.0195
vn 0.0385 0.9992 -0.0054
vn 0.6274 0.5792 -0.5205
vn 0.0588 0.9548 -0.2915
vn 0.0243 0.9850 0.1710
vn 0.0371 0.9992 0.0119
vn 0.0432 0.9968 -0.0679
vn -0.0378 -0.9993 -0.0033
vn 0.0356 0.9989 0.0314
vn 0.0401 0.9988 -0.0270
vn 0.0331 0.9974 0.0633
vn 0.4576 -0.8892 0.0029
vn 0.4036 0.3640 0.8394
vn 0.7071 0.6871 -0.1671
vn 0.1623 0.1239 -0.9789
vn 0.1273 0.1209 0.9845
vn 0.7044 0.6858 0.1831
vn 0.4479 0.3813 -0.8087
vn -0.7636 -0.6453 -0.0217
vn 0.6064 0.5707 0.5536
vn 0.8104 0.1528 0.5656
vn 0.6647 0.5392 0.5171
vn -0.9826 -0.1846 -0.0196
vn -0.7881 -0.6153 -0.0193
vn 0.6381 0.1334 -0.7583
vn 0.4970 0.3810 -0.7796
vn 0.9764 0.2060 0.0651
vn 0.7693 0.6204 0.1530
vn 0.1756 0.0340 0.9839
vn 0.1459 0.1261 0.9812
vn 0.2138 0.0391 -0.9761
vn 0.1753 0.1247 -0.9766
vn 0.9411 0.1856 -0.2827
vn 0.7733 0.6169 -0.1462
vn 0.5359 0.1015 0.8381
vn 0.4532 0.3676 0.8121
vn 0.8421 0.0063 -0.5393
vn 0.8830 0.1739 -0.4360
vn 0.6891 0.5413 -0.4819
vn 0.8009 0.4414 -0.4047
vn 0.6943 0.5456 -0.4692
vn 0.5556 0.2942 0.7777
vn 0.5122 0.3926 0.7639
vn 0.8452 0.4717 -0.2514
vn 0.7742 0.6177 -0.1377
vn 0.2049 0.0901 -0.9746
vn 0.1878 0.1346 -0.9729
vn 0.2441 0.1429 0.9592
vn 0.2214 0.1651 0.9611
vn 0.8806 0.4465 0.1587
vn 0.7683 0.6197 0.1600
vn 0.5557 0.2662 -0.7876
vn 0.5048 0.3872 -0.7715
vn -0.8897 -0.4566 0.0034
vn -0.8046 -0.5939 0.0014
vn 0.7552 0.3744 0.5381
vn 0.6717 0.5446 0.5022
vn 0.5387 0.0381 0.8417
vn 0.2140 0.0167 -0.9767
vn 0.1760 -0.0014 0.9844
vn 0.1759 0.0116 0.9843
vn 0.9941 0.0388 0.1016
vn 0.6270 0.0260 -0.7786
vn -0.9972 -0.0723 -0.0196
vn 0.8189 0.0587 0.5709
vt 0.937500 0.964959
vt 0.875000 0.964959
vt 0.875000 0.929919
vt 0.937500 0.929919
vt 0.812500 0.964959
vt 0.750000 0.964959
vt 0.750000 0.929919
vt 0.812500 0.929919
vt 0.687500 0.964959
vt 0.625000 0.964959
vt 0.625000 0.929919
vt 0.687500 0.929919
vt 0.562500 0.964959
vt 0.562500 0.929919
vt 1.000000 0.964959
vt 1.000000 0.929919
vt 0.437500 0.964959
vt 0.375000 0.964959
vt 0.375000 0.929919
vt 0.437500 0.929919
vt 0.312500 0.964959
vt 0.250000 0.964959
vt 0.250000 0.929919
vt 0.312500 0.929919
vt 0.187500 0.964959
vt 0.187500 0.929919
vt 0.750000 1.000000
vt 0.687500 1.000000
vt 0.062500 0.929919
vt 0.125000 0.929919
vt 0.437500 1.000000
vt 0.375000 1.000000
vt 1.000000 1.000000
vt 0.937500 1.000000
vt 0.625000 1.000000
vt 0.080977 0.179988
vt 0.120635 0.120635
vt 0.312500 1.000000
vt 0.062500 0.500000
vt 0.062500 0.655691
vt 0.000000 0.655691
vt 0.000000 0.500000
vt 0.062500 0.822358
vt 0.000000 0.822358
vt 0.125000 0.500000
vt 0.125000 0.655691
vt 0.125000 0.822358
vt 0.187500 0.500000
vt 0.187500 0.655691
vt 0.187500 0.822358
vt 0.187500 0.822358
vt 0.250000 0.500000
vt 0.250000 0.655691
vt 0.250000 0.822358
vt 0.312500 0.500000
vt 0.312500 0.655691
vt 0.312500 0.822358
vt 0.375000 0.500000
vt 0.375000 0.655691
vt 0.375000 0.822358
vt 0.437500 0.500000
vt 0.437500 0.655691
vt 0.437500 0.822358
vt 0.437500 0.822358
vt 0.500000 0.500000
vt 0.500000 0.655691
vt 0.500000 0.822358
vt 0.562500 0.500000
vt 0.562500 0.655691
vt 0.562500 0.822358
vt 0.625000 0.500000
vt 0.625000 0.655691
vt 0.625000 0.822358
vt 0.687500 0.500000
vt 0.687500 0.655691
vt 0.687500 0.822358
vt 0.687500 0.822358
vt 0.750000 0.500000
vt 0.750000 0.655691
vt 0.750000 0.822358
vt 0.812500 0.500000
vt 0.812500 0.655691
vt 0.812500 0.822358
vt 0.875000 0.500000
vt 0.875000 0.655691
vt 0.875000 0.822358
vt 0.937500 0.500000
vt 0.937500 0.655691
vt 0.937500 0.822358
vt 0.937500 0.822358
vt 1.000000 0.500000
vt 1.000000 0.655691
vt 1.000000 0.822358
vt 0.125000 1.000000
vt 0.062500 1.000000
vt 0.875000 1.000000
vt 0.000000 0.929919
vt 0.062500 0.964959
vt 0.000000 0.964959
vt 0.500000 0.964959
vt 0.500000 0.929919
vt 0.125000 0.964959
vt 0.187500 1.000000
vt 0.562500 1.000000
vt 0.000000 1.000000
vt 0.812500 1.000000
vt 0.250000 1.000000
vt 0.500000 1.000000
vt 0.432950 0.250000
vt 0.419023 0.320012
vt 0.067050 0.250000
vt 0.419023 0.179988
vt 0.080977 0.320012
vt 0.379365 0.120635
vt 0.120635 0.379365
vt 0.320012 0.080977
vt 0.179988 0.419023
vt 0.250000 0.067050
vt 0.320012 0.419024
vt 0.250000 0.432950
vt 0.179988 0.080977
vt 0.379365 0.379365
vt 0.341844 0.471731
vt 0.250000 0.490000
vt 0.419706 0.419706
vt 0.471731 0.341844
vt 0.490000 0.250000
vt 0.471731 0.158156
vt 0.419706 0.080294
vt 0.341844 0.028269
vt 0.250000 0.010000
vt 0.158156 0.028269
vt 0.080294 0.080294
vt 0.028269 0.158156
vt 0.010000 0.250000
vt 0.028269 0.341844
vt 0.080294 0.419706
vt 0.158156 0.471731
vt 0.569109 0.500000
vt 0.514733 0.500000
vt 0.486025 0.500000
vt 0.477569 0.500000
vt 0.657685 0.500000
vt 0.675504 0.500000
vt 0.652877 0.500000
vt 0.615079 0.500000
vt 0.513102 0.500000
vt 0.675504 0.500000
vt 0.513102 0.500000
vt 0.615079 0.500000
vt 0.615079 0.500000
vt 0.477569 0.500000
vt 0.477569 0.500000
vt 0.486025 0.500000
vt 0.675504 0.500000
vt 0.486025 0.500000
vt 0.000000 0.000000
s 0
usemtl Mate
f 90/27/10 92/28/10 120/28/10 122/27/10
f 111/29/11 109/30/11 76/30/11 80/29/11
f 100/31/10 102/32/10 67/32/10 65/31/10
f 81/33/10 84/34/10 128/34/10 78/33/10
f 92/28/10 94/35/10 118/35/10 120/28/10
f 103/24/11 101/19/11 68/19/11 70/24/11
f 102/32/10 104/38/10 69/38/10 67/32/10
f 31/39/13 64/40/13 33/41/13 1/42/13
f 392/43/10 63/43/10 34/44/10 377/44/10
f 29/45/14 62/46/14 64/40/14 31/39/14
f 391/47/10 61/47/10 63/43/10 392/43/10
f 27/48/15 60/49/15 62/46/15 29/45/15
f 390/50/10 59/51/10 61/47/10 391/47/10
f 25/52/16 58/53/16 60/49/16 27/48/16
f 389/54/10 57/54/10 59/51/10 390/50/10
f 23/55/17 56/56/17 58/53/17 25/52/17
f 388/57/10 55/57/10 57/54/10 389/54/10
f 21/58/18 54/59/18 56/56/18 23/55/18
f 387/60/10 53/60/10 55/57/10 388/57/10
f 19/61/19 52/62/19 54/59/19 21/58/19
f 386/63/10 51/64/10 53/60/10 387/60/10
f 17/65/20 50/66/20 52/62/20 19/61/20
f 385/67/10 49/67/10 51/64/10 386/63/10
f 15/68/21 48/69/21 50/66/21 17/65/21
f 384/70/10 47/70/10 49/67/10 385/67/10
f 13/71/22 46/72/22 48/69/22 15/68/22
f 383/73/10 45/73/10 47/70/10 384/70/10
f 11/74/23 44/75/23 46/72/23 13/71/23
f 382/76/10 43/77/10 45/73/10 383/73/10
f 9/78/24 42/79/24 44/75/24 11/74/24
f 381/80/10 41/80/10 43/77/10 382/76/10
f 7/81/25 40/82/25 42/79/25 9/78/25
f 380/83/10 39/83/10 41/80/10 381/80/10
f 5/84/26 38/85/26 40/82/26 7/81/26
f 379/86/10 37/86/10 39/83/10 380/83/10
f 3/87/27 36/88/27 38/85/27 5/84/27
f 378/89/10 35/90/10 37/86/10 379/86/10
f 1/91/28 33/92/28 36/88/28 3/87/28
f 377/93/10 34/93/10 35/90/10 378/89/10
f 110/94/10 112/95/10 79/95/10 75/94/10
f 85/3/11 83/4/11 127/4/11 125/3/11
f 84/34/10 86/96/10 126/96/10 128/34/10
f 95/14/11 93/11/11 117/11/11 115/14/11
f 82/97/11 111/29/11 80/29/11 77/97/11
f 101/19/11 99/20/11 66/20/11 68/19/11
f 93/11/11 91/12/11 119/12/11 117/11/11
f 108/103/10 110/94/10 75/94/10 73/103/10
f 83/4/11 82/16/11 77/16/11 127/4/11
f 94/35/10 96/104/10 116/104/10 118/35/10
f 87/8/11 85/3/11 125/3/11 123/8/11
f 105/23/11 103/24/11 70/24/11 72/23/11
f 112/95/10 81/105/10 78/105/10 79/95/10
f 86/96/10 88/106/10 124/106/10 126/96/10
f 104/38/10 106/107/10 71/107/10 69/38/10
f 97/101/11 95/14/11 115/14/11 113/101/11
f 96/104/10 98/108/10 114/108/10 116/104/10
f 89/7/11 87/8/11 123/8/11 121/7/11
f 107/26/11 105/23/11 72/23/11 74/26/11
f 88/106/10 90/27/10 122/27/10 124/106/10
f 106/107/10 108/103/10 73/103/10 71/107/10
f 99/20/11 97/101/11 113/101/11 66/20/11
f 98/108/10 100/31/10 65/31/10 114/108/10
f 91/12/11 89/7/11 121/7/11 119/12/11
f 109/30/11 107/26/11 74/26/11 76/30/11
f 34/93/36 82/16/36 83/4/36 35/90/36
f 63/43/37 111/29/37 82/97/37 34/44/37
f 35/90/38 83/4/38 85/3/38 37/86/38
f 37/86/39 85/3/39 87/8/39 39/83/39
f 39/83/40 87/8/40 89/7/40 41/80/40
f 41/80/41 89/7/41 91/12/41 43/77/41
f 43/77/42 91/12/42 93/11/42 45/73/42
f 45/73/43 93/11/43 95/14/43 47/70/43
f 47/70/44 95/14/44 97/101/44 49/67/44
f 49/67/45 97/101/45 99/20/45 51/64/45
f 51/64/46 99/20/46 101/19/46 53/60/46
f 53/60/47 101/19/47 103/24/47 55/57/47
f 55/57/48 103/24/48 105/23/48 57/54/48
f 57/54/49 105/23/49 107/26/49 59/51/49
f 59/51/50 107/26/50 109/30/50 61/47/50
f 61/47/51 109/30/51 111/29/51 63/43/51
f 13/71/52 15/68/52 213/68/52 212/71/52
f 208/84/66 209/81/66 227/81/66 226/84/66
f 3/87/64 5/84/64 208/84/64 207/87/64
f 1/91/61 3/87/61 207/87/61 206/91/61
f 7/81/53 9/78/53 210/78/53 209/81/53
f 11/74/57 13/71/57 212/71/57 211/74/57
f 15/68/60 17/65/60 214/65/60 213/68/60
f 5/84/66 7/81/66 209/81/66 208/84/66
f 9/78/55 11/74/55 211/74/55 210/78/55
f 221/139/10 222/140/10 240/140/10 239/139/10
f 212/71/52 213/68/52 231/68/52 230/71/52
f 209/81/53 210/78/53 228/78/53 227/81/53
f 206/91/61 207/87/61 225/87/61 224/91/61
f 213/68/60 214/65/60 232/65/60 231/68/60
f 210/78/55 211/74/55 229/74/55 228/78/55
f 207/87/64 208/84/64 226/84/64 225/87/64
f 214/65/68 206/42/68 224/42/68 232/65/68
f 211/74/57 212/71/57 230/71/57 229/74/57
f 218/144/10 219/145/10 237/145/10 236/144/10
f 215/142/10 216/141/10 234/141/10 233/142/10
f 222/140/10 223/147/10 241/147/10 240/140/10
f 219/145/10 220/146/10 238/146/10 237/145/10
f 216/141/10 217/143/10 235/143/10 234/141/10
f 223/147/10 215/142/10 233/142/10 241/147/10
f 220/146/10 221/139/10 239/139/10 238/146/10
f 217/143/10 218/144/10 236/144/10 235/143/10
f 246/145/10 247/146/10 256/146/10 255/145/10
f 233/142/11 234/141/11 243/141/11 242/142/11
f 240/140/11 241/147/11 250/147/11 249/140/11
f 254/144/10 255/145/10 264/145/10 263/144/10
f 243/141/10 244/143/10 253/143/10 252/141/10
f 250/147/10 242/142/10 251/142/10 259/147/10
f 247/146/10 248/139/10 257/139/10 256/146/10
f 244/143/10 245/144/10 254/144/10 253/143/10
f 248/139/10 249/140/10 258/140/10 257/139/10
f 245/144/10 246/145/10 255/145/10 254/144/10
f 242/142/10 243/141/10 252/141/10 251/142/10
f 249/140/10 250/147/10 259/147/10 258/140/10
f 263/144/69 264/145/69 273/145/69 272/144/69
f 251/142/10 252/141/10 261/141/10 260/142/10
f 258/140/10 259/147/10 268/147/10 267/140/10
f 255/145/10 256/146/10 265/146/10 264/145/10
f 252/141/10 253/143/10 262/143/10 261/141/10
f 259/147/10 251/142/10 260/142/10 268/147/10
f 256/146/10 257/139/10 266/139/10 265/146/10
f 253/143/10 254/144/10 263/144/10 262/143/10
f 257/139/10 258/140/10 267/140/10 266/139/10
f 260/142/71 261/141/71 270/141/71 269/142/71
f 267/140/72 268/147/72 277/147/72 276/140/72
f 264/145/73 265/146/73 274/146/73 273/145/73
f 261/141/74 262/143/74 271/143/74 270/141/74
f 265/146/76 266/139/76 275/139/76 274/146/76
f 262/143/77 263/144/77 272/144/77 271/143/77
f 266/139/78 267/140/78 276/140/78 275/139/78
f 31/157/11 1/157/11 3/157/11 5/157/11 7/157/11 9/157/11 11/157/11 13/157/11 15/157/11 17/157/11 19/157/11 21/157/11 23/157/11 25/157/11 27/157/11 29/157/11
f 391/47/10 392/43/10 421/43/10 419/47/10
f 60/49/10 58/53/10 416/53/10 418/49/10
f 377/93/10 378/89/10 393/89/10 424/93/10
f 390/50/10 391/47/10 419/47/10 417/50/10
f 48/69/10 46/72/10 404/72/10 406/69/10
f 389/54/10 390/50/10 417/50/10 415/54/10
f 62/46/10 60/49/10 418/49/10 420/46/10
f 388/57/10 389/54/10 415/54/10 413/57/10
f 36/88/10 33/92/10 423/92/10 394/88/10
f 50/66/10 48/69/10 406/69/10 408/66/10
f 387/60/10 388/57/10 413/57/10 411/60/10
f 64/40/10 62/46/10 420/46/10 422/40/10
f 386/63/10 387/60/10 411/60/10 409/63/10
f 38/85/10 36/88/10 394/88/10 396/85/10
f 52/62/10 50/66/10 408/66/10 410/62/10
f 385/67/10 386/63/10 409/63/10 407/67/10
f 423/92/63 424/93/63 393/89/63 394/88/63
f 394/88/65 393/89/65 395/86/65 396/85/65
f 396/85/12 395/86/12 397/83/12 398/82/12
f 398/82/54 397/83/54 399/80/54 400/79/54
f 400/79/56 399/80/56 401/76/56 402/75/56
f 402/75/58 401/76/58 403/73/58 404/72/58
f 404/72/59 403/73/59 405/70/59 406/69/59
f 406/69/62 405/70/62 407/67/62 408/66/62
f 408/66/61 407/67/61 409/63/61 410/62/61
f 410/62/64 409/63/64 411/60/64 412/59/64
f 412/59/66 411/60/66 413/57/66 414/56/66
f 414/56/53 413/57/53 415/54/53 416/53/53
f 416/53/55 415/54/55 417/50/55 418/49/55
f 418/49/57 417/50/57 419/47/57 420/46/57
f 420/46/52 419/47/52 421/43/52 422/40/52
f 422/40/60 421/43/60 424/44/60 423/41/60
f 46/72/10 44/75/10 402/75/10 404/72/10
f 378/89/10 379/86/10 395/86/10 393/89/10
f 392/43/10 377/44/10 424/44/10 421/43/10
f 379/86/10 380/83/10 397/83/10 395/86/10
f 58/53/10 56/56/10 414/56/10 416/53/10
f 44/75/10 42/79/10 400/79/10 402/75/10
f 380/83/10 381/80/10 399/80/10 397/83/10
f 381/80/10 382/76/10 401/76/10 399/80/10
f 56/56/10 54/59/10 412/59/10 414/56/10
f 42/79/10 40/82/10 398/82/10 400/79/10
f 382/76/10 383/73/10 403/73/10 401/76/10
f 383/73/10 384/70/10 405/70/10 403/73/10
f 54/59/10 52/62/10 410/62/10 412/59/10
f 40/82/10 38/85/10 396/85/10 398/82/10
f 384/70/10 385/67/10 407/67/10 405/70/10
f 33/41/10 64/40/10 422/40/10 423/41/10
usemtl Alpaca
f 129/1/1 130/2/1 125/3/1 127/4/1
f 131/5/2 132/6/2 121/7/2 123/8/2
f 133/9/3 134/10/3 117/11/3 119/12/3
f 134/10/4 135/13/4 115/14/4 117/11/4
f 144/15/5 129/1/5 127/4/5 77/16/5
f 137/17/6 138/18/6 68/19/6 66/20/6
f 139/21/7 140/22/7 72/23/7 70/24/7
f 140/22/8 141/25/8 74/26/8 72/23/8
f 132/6/9 133/9/9 119/12/9 121/7/9
f 24/36/12 22/37/12 164/37/12 165/36/12
f 143/98/29 144/99/29 77/97/29 80/29/29
f 130/2/30 131/5/30 123/8/30 125/3/30
f 135/13/31 136/100/31 113/101/31 115/14/31
f 136/100/32 137/17/32 66/20/32 113/101/32
f 138/18/33 139/21/33 70/24/33 68/19/33
f 141/25/34 142/102/34 76/30/34 74/26/34
f 142/102/35 143/98/35 80/29/35 76/30/35
f 75/94/35 79/95/35 143/98/35 142/102/35
f 73/103/34 75/94/34 142/102/34 141/25/34
f 67/32/33 69/38/33 139/21/33 138/18/33
f 114/108/32 65/31/32 137/17/32 136/100/32
f 116/104/31 114/108/31 136/100/31 135/13/31
f 126/96/30 124/106/30 131/5/30 130/2/30
f 79/95/29 78/105/29 144/99/29 143/98/29
f 122/27/9 120/28/9 133/9/9 132/6/9
f 71/107/8 73/103/8 141/25/8 140/22/8
f 69/38/7 71/107/7 140/22/7 139/21/7
f 65/31/6 67/32/6 138/18/6 137/17/6
f 78/33/5 128/34/5 129/1/5 144/15/5
f 118/35/4 116/104/4 135/13/4 134/10/4
f 120/28/3 118/35/3 134/10/3 133/9/3
f 124/106/2 122/27/2 132/6/2 131/5/2
f 128/34/1 126/96/1 130/2/1 129/1/1
f 10/109/53 8/110/53 157/110/53 158/109/53
f 26/111/54 24/36/54 165/36/54 166/111/54
f 12/112/55 10/109/55 158/109/55 159/112/55
f 28/113/56 26/111/56 166/111/56 167/113/56
f 14/114/57 12/112/57 159/112/57 160/114/57
f 30/115/58 28/113/58 167/113/58 168/115/58
f 16/116/52 14/114/52 160/114/52 161/116/52
f 32/117/59 30/115/59 168/115/59 169/117/59
f 18/118/60 16/116/60 161/116/60 162/118/60
f 4/119/61 2/120/61 155/120/61 154/119/61
f 2/120/62 32/117/62 169/117/62 155/120/62
f 20/121/63 18/118/63 162/118/63 163/121/63
f 6/122/64 4/119/64 154/119/64 156/122/64
f 22/37/65 20/121/65 163/121/65 164/37/65
f 8/110/66 6/122/66 156/122/66 157/110/66
f 2/120/10 4/119/10 84/123/10 81/124/10
f 4/119/10 6/122/10 86/125/10 84/123/10
f 6/122/10 8/110/10 88/126/10 86/125/10
f 8/110/10 10/109/10 90/127/10 88/126/10
f 10/109/10 12/112/10 92/128/10 90/127/10
f 12/112/10 14/114/10 94/129/10 92/128/10
f 14/114/10 16/116/10 96/130/10 94/129/10
f 16/116/10 18/118/10 98/131/10 96/130/10
f 18/118/10 20/121/10 100/132/10 98/131/10
f 20/121/10 22/37/10 102/133/10 100/132/10
f 22/37/10 24/36/10 104/134/10 102/133/10
f 24/36/10 26/111/10 106/135/10 104/134/10
f 26/111/10 28/113/10 108/136/10 106/135/10
f 28/113/10 30/115/10 110/137/10 108/136/10
f 30/115/10 32/117/10 112/138/10 110/137/10
f 32/117/10 2/120/10 81/124/10 112/138/10
f 293/143/70 292/148/70 281/144/70 280/143/70
f 278/142/79 279/141/79 280/143/79 281/144/79 282/145/79 283/146/79 284/139/79 285/140/79 286/147/79
f 305/139/80 304/140/80 285/140/80 284/139/80
f 292/148/81 316/145/81 282/145/81 281/144/81
f 323/142/82 322/141/82 279/141/82 278/142/82
f 304/140/83 334/149/83 286/147/83 285/140/83
f 316/145/84 340/150/84 283/146/84 282/145/84
f 322/141/85 293/143/85 280/143/85 279/141/85
f 334/149/86 323/142/86 278/142/86 286/147/86
f 340/150/87 305/139/87 284/139/87 283/146/87
f 274/146/57 275/139/57 310/139/57 335/146/57
f 335/146/57 310/139/57 309/139/57 336/151/57
f 336/151/57 309/139/57 308/139/57 337/151/57
f 337/151/57 308/139/57 307/139/57 338/151/57
f 376/150/88 365/139/88 306/139/88 339/150/88
f 358/150/89 347/139/89 305/139/89 340/150/89
f 277/147/68 269/142/68 328/152/68 329/147/68
f 329/147/68 328/152/68 327/152/68 330/149/68
f 330/149/68 327/152/68 326/152/68 331/149/68
f 331/149/68 326/152/68 325/152/68 332/149/68
f 374/149/90 371/142/90 324/142/90 333/149/90
f 356/149/91 353/153/91 323/142/91 334/149/91
f 270/141/64 271/143/64 298/143/64 317/141/64
f 317/141/64 298/143/64 297/143/64 318/141/64
f 318/141/64 297/143/64 296/143/64 319/154/64
f 319/154/64 296/143/64 295/143/64 320/154/64
f 370/141/92 361/143/92 294/143/92 321/141/92
f 352/141/93 343/143/93 293/143/93 322/141/93
f 273/145/55 274/146/55 335/146/55 311/145/55
f 311/145/55 335/146/55 336/151/55 312/145/55
f 312/145/55 336/151/55 337/151/55 313/145/55
f 313/145/55 337/151/55 338/151/55 314/145/55
f 368/145/94 376/150/94 339/150/94 315/145/94
f 350/145/95 358/150/95 340/150/95 316/145/95
f 276/140/60 277/147/60 329/147/60 299/140/60
f 299/140/60 329/147/60 330/149/60 300/140/60
f 300/140/60 330/149/60 331/149/60 301/140/60
f 301/140/60 331/149/60 332/149/60 302/140/60
f 364/140/96 374/149/96 333/149/96 303/140/96
f 346/140/97 356/149/97 334/149/97 304/140/97
f 269/142/61 270/141/61 317/141/61 328/152/61
f 328/152/61 317/141/61 318/141/61 327/152/61
f 327/152/61 318/141/61 319/154/61 326/152/61
f 326/152/61 319/154/61 320/154/61 325/152/61
f 371/142/98 370/141/98 321/141/98 324/142/98
f 353/153/99 352/141/99 322/141/99 323/142/99
f 272/144/53 273/145/53 311/145/53 287/144/53
f 287/144/53 311/145/53 312/145/53 288/144/53
f 288/144/53 312/145/53 313/145/53 289/155/53
f 289/155/53 313/145/53 314/145/53 290/144/53
f 360/148/100 368/145/100 315/145/100 291/148/100
f 342/148/101 350/145/101 316/145/101 292/148/101
f 275/139/52 276/140/52 299/140/52 310/139/52
f 310/139/52 299/140/52 300/140/52 309/139/52
f 309/139/52 300/140/52 301/140/52 308/139/52
f 308/139/52 301/140/52 302/140/52 307/139/52
f 365/139/102 364/140/102 303/140/102 306/139/102
f 347/139/103 346/140/103 304/140/103 305/139/103
f 271/143/66 272/144/66 287/144/66 298/143/66
f 298/143/104 287/144/104 288/144/104 297/143/104
f 297/143/104 288/144/104 289/155/104 296/143/104
f 296/143/104 289/155/104 290/144/104 295/143/104
f 361/143/105 360/148/105 291/148/105 294/143/105
f 343/143/106 342/148/106 292/148/106 293/143/106
f 294/143/107 291/148/107 341/148/107 344/143/107
f 344/143/108 341/148/108 342/148/108 343/143/108
f 306/139/109 303/140/109 345/140/109 348/139/109
f 348/139/110 345/140/110 346/140/110 347/139/110
f 291/148/111 315/145/111 349/145/111 341/148/111
f 341/148/112 349/145/112 350/145/112 342/148/112
f 324/142/113 321/141/113 351/156/113 354/153/113
f 354/153/114 351/156/114 352/141/114 353/153/114
f 303/140/115 333/149/115 355/149/115 345/140/115
f 345/140/116 355/149/116 356/149/116 346/140/116
f 315/145/117 339/150/117 357/150/117 349/145/117
f 349/145/118 357/150/118 358/150/118 350/145/118
f 321/141/119 294/143/119 344/143/119 351/156/119
f 351/156/120 344/143/120 343/143/120 352/141/120
f 333/149/121 324/142/121 354/153/121 355/149/121
f 355/149/122 354/153/122 353/153/122 356/149/122
f 339/150/123 306/139/123 348/139/123 357/150/123
f 357/150/124 348/139/124 347/139/124 358/150/124
f 295/143/104 290/144/104 359/148/104 362/143/104
f 362/143/66 359/148/66 360/148/66 361/143/66
f 307/139/52 302/140/52 363/140/52 366/139/52
f 366/139/125 363/140/125 364/140/125 365/139/125
f 290/144/53 314/145/53 367/145/53 359/148/53
f 359/148/53 367/145/53 368/145/53 360/148/53
f 325/152/61 320/154/61 369/141/61 372/152/61
f 372/152/126 369/141/126 370/141/126 371/142/126
f 302/140/127 332/149/127 373/149/127 363/140/127
f 363/140/128 373/149/128 374/149/128 364/140/128
f 314/145/55 338/151/55 375/150/55 367/145/55
f 367/145/129 375/150/129 376/150/129 368/145/129
f 320/154/64 295/143/64 362/143/64 369/141/64
f 369/141/130 362/143/130 361/143/130 370/141/130
f 332/149/68 325/152/68 372/152/68 373/149/68
f 373/149/131 372/152/131 371/142/131 374/149/131
f 338/151/57 307/139/57 366/139/57 375/150/57
f 375/150/132 366/139/132 365/139/132 376/150/132
usemtl YerbaSeca
f 198/65/11 205/61/11 204/58/11 203/55/11 202/52/11 201/48/11 200/45/11 199/39/11 197/42/11
f 198/65/67 197/42/67 224/42/67 232/65/67
usemtl YerbaMojada
f 216/141/11 215/142/11 224/42/11 225/87/11
f 217/143/11 216/141/11 225/87/11 226/84/11
f 218/144/11 217/143/11 226/84/11 227/81/11
f 219/145/11 218/144/11 227/81/11 228/78/11
f 220/146/11 219/145/11 228/78/11 229/74/11
f 221/139/11 220/146/11 229/74/11 230/71/11
f 222/140/11 221/139/11 230/71/11 231/68/11
f 223/147/11 222/140/11 231/68/11 232/65/11
f 215/142/11 223/147/11 232/65/11 224/42/11
f 238/146/11 239/139/11 248/139/11 247/146/11
f 235/143/11 236/144/11 245/144/11 244/143/11
f 239/139/11 240/140/11 249/140/11 248/139/11
f 236/144/11 237/145/11 246/145/11 245/144/11
f 237/145/11 238/146/11 247/146/11 246/145/11
f 234/141/11 235/143/11 244/143/11 243/141/11
f 241/147/11 233/142/11 242/142/11 250/147/11
f 268/147/75 260/142/75 269/142/75 277/147/75
l 149 25
l 148 27
l 147 29
l 153 17
l 19 152
l 146 31
l 1 145
l 150 23
l 151 21
l 149 175
l 176 150
l 146 172
l 173 147
l 177 151
l 174 148
l 153 171
l 170 145
l 178 152
l 176 185
l 186 177
l 173 182
l 183 174
l 171 180
l 179 170
l 187 178
l 184 175
l 181 172
l 184 193
l 194 185
l 181 190
l 191 182
l 195 186
l 192 183
l 180 189
l 188 179
l 196 187
l 192 201
l 202 193
l 188 197
l 199 190
l 196 205
l 198 189
l 203 194
l 200 191
l 204 195
l 1 188
l 17 189
